<svg version="1.1" viewBox="0.0 0.0 343.29396325459317 332.9737532808399" fill="none" stroke="none" stroke-linecap="square" stroke-miterlimit="10" xmlns:xlink="http://www.w3.org/1999/xlink" xmlns="http://www.w3.org/2000/svg"><clipPath id="p.0"><path d="m0 0l343.29398 0l0 332.97375l-343.29398 0l0 -332.97375z" clip-rule="nonzero"/></clipPath><g clip-path="url(#p.0)"><path fill="#000000" fill-opacity="0.0" d="m0 0l343.29398 0l0 332.97375l-343.29398 0z" fill-rule="evenodd"/><path fill="#ffffff" d="m55.11286 146.61417l0 0c0 -80.97276 53.29574 -146.61417 119.039375 -146.61417l0 0c31.571198 0 61.849335 15.446806 84.17354 42.9423c22.324219 27.495491 34.865814 64.78738 34.865814 103.67187l0 0c0 80.97278 -53.29573 146.61417 -119.03935 146.61417l0 0c-65.74364 0 -119.039375 -65.64139 -119.039375 -146.61417z" fill-rule="evenodd"/><path fill="#000000" fill-opacity="0.0" d="m43.01837 4.133858l262.26773 0l0 261.7953l-262.26773 0z" fill-rule="evenodd"/><path fill="#000000" d="m159.8495 205.13387l0 -118.95313l-42.484383 0l0 -24.21875l113.76562 0l0 24.21875l-42.375 0l0 118.95313l-28.906235 0z" fill-rule="nonzero"/><path fill="#d5a888" d="m247.97777 74.172455l0 0c1.0809937 -1.0579605 2.8149872 -1.0393143 3.8729858 0.041641235l7.662491 7.828705l0 0c0.50805664 0.5190964 0.789093 1.21875 0.7812805 1.9450455c-0.0078125 0.7262955 -0.303833 1.4197388 -0.822937 1.9277878l-158.67241 155.29022c-1.0809937 1.0579529 -2.8149948 1.0393066 -3.8729935 -0.041641235l-7.662468 -7.82872c-1.0579987 -1.0809479 -1.03936 -2.814865 0.041641235 -3.872818z" fill-rule="evenodd"/><path stroke="#000000" stroke-width="1.0" stroke-linejoin="round" stroke-linecap="butt" d="m247.97777 74.172455l0 0c1.0809937 -1.0579605 2.8149872 -1.0393143 3.8729858 0.041641235l7.662491 7.828705l0 0c0.50805664 0.5190964 0.789093 1.21875 0.7812805 1.9450455c-0.0078125 0.7262955 -0.303833 1.4197388 -0.822937 1.9277878l-158.67241 155.29022c-1.0809937 1.0579529 -2.8149948 1.0393066 -3.8729935 -0.041641235l-7.662468 -7.82872c-1.0579987 -1.0809479 -1.03936 -2.814865 0.041641235 -3.872818z" fill-rule="evenodd"/><path fill="#d5a888" d="m47.367912 195.3276l0 0c3.2481194 -3.1777802 8.45763 -3.1210327 11.635765 0.1267395l75.13739 76.783844c1.5261993 1.5596313 2.3702545 3.6615906 2.3464813 5.8434753c-0.023757935 2.1819153 -0.9134064 4.264984 -2.4732056 5.7910156l-23.524261 23.014832c-3.2481232 3.177765 -8.457634 3.1210327 -11.635765 -0.1267395l-75.13739 -76.783844l0 0c-3.178133 -3.2477722 -3.121397 -8.456711 0.12672234 -11.634491z" fill-rule="evenodd"/><path stroke="#000000" stroke-width="1.0" stroke-linejoin="round" stroke-linecap="butt" d="m47.367912 195.3276l0 0c3.2481194 -3.1777802 8.45763 -3.1210327 11.635765 0.1267395l75.13739 76.783844c1.5261993 1.5596313 2.3702545 3.6615906 2.3464813 5.8434753c-0.023757935 2.1819153 -0.9134064 4.264984 -2.4732056 5.7910156l-23.524261 23.014832c-3.2481232 3.177765 -8.457634 3.1210327 -11.635765 -0.1267395l-75.13739 -76.783844l0 0c-3.178133 -3.2477722 -3.121397 -8.456711 0.12672234 -11.634491z" fill-rule="evenodd"/><path fill="#3c78d8" d="m62.39341 198.91714l5.4224854 5.5408936l-35.28675 34.522583l-5.4224854 -5.5408936z" fill-rule="evenodd"/><path stroke="#3c78d8" stroke-width="1.0" stroke-linejoin="round" stroke-linecap="butt" d="m62.39341 198.91714l5.4224854 5.5408936l-35.28675 34.522583l-5.4224854 -5.5408936z" fill-rule="evenodd"/><path fill="#3c78d8" d="m71.55603 208.27931l5.4224854 5.540909l-35.286755 34.522583l-5.4224854 -5.540909z" fill-rule="evenodd"/><path stroke="#3c78d8" stroke-width="1.0" stroke-linejoin="round" stroke-linecap="butt" d="m71.55603 208.27931l5.4224854 5.540909l-35.286755 34.522583l-5.4224854 -5.540909z" fill-rule="evenodd"/><path fill="#3c78d8" d="m116.18294 253.87819l5.4224854 5.540909l-35.28675 34.522583l-5.4224854 -5.540924z" fill-rule="evenodd"/><path stroke="#3c78d8" stroke-width="1.0" stroke-linejoin="round" stroke-linecap="butt" d="m116.18294 253.87819l5.4224854 5.540909l-35.28675 34.522583l-5.4224854 -5.540924z" fill-rule="evenodd"/><path fill="#3c78d8" d="m125.34556 263.24036l5.4224777 5.5408936l-35.28675 34.522583l-5.4224854 -5.5408936z" fill-rule="evenodd"/><path stroke="#3c78d8" stroke-width="1.0" stroke-linejoin="round" stroke-linecap="butt" d="m125.34556 263.24036l5.4224777 5.5408936l-35.28675 34.522583l-5.4224854 -5.5408936z" fill-rule="evenodd"/><path fill="#3c78d8" d="m250.50822 94.70514l-5.540909 5.4224854l-11.49382 -11.743187l5.540909 -5.4224854z" fill-rule="evenodd"/><path stroke="#3c78d8" stroke-width="1.0" stroke-linejoin="round" stroke-linecap="butt" d="m250.50822 94.70514l-5.540909 5.4224854l-11.49382 -11.743187l5.540909 -5.4224854z" fill-rule="evenodd"/><path fill="#3c78d8" d="m241.14604 103.86775l-5.5408936 5.4224854l-11.493835 -11.743179l5.540909 -5.4224854z" fill-rule="evenodd"/><path stroke="#3c78d8" stroke-width="1.0" stroke-linejoin="round" stroke-linecap="butt" d="m241.14604 103.86775l-5.5408936 5.4224854l-11.493835 -11.743179l5.540909 -5.4224854z" fill-rule="evenodd"/><path fill="#d5a888" d="m87.08106 87.41336l0 0c-1.0912323 -1.0471115 -1.1270294 -2.7806244 -0.079956055 -3.8718948l7.5833206 -7.903473l0 0c0.5028229 -0.52404785 1.193222 -0.8268814 1.9193115 -0.8418808c0.7260895 -0.01499176 1.4284058 0.25907898 1.9524307 0.76192474l160.17484 153.69937c1.091217 1.0471191 1.1270447 2.7806244 0.079956055 3.8719025l-7.5833282 7.903473c-1.0470734 1.0912781 -2.7805023 1.1270752 -3.8717346 0.079956055z" fill-rule="evenodd"/><path stroke="#000000" stroke-width="1.0" stroke-linejoin="round" stroke-linecap="butt" d="m87.08106 87.41336l0 0c-1.0912323 -1.0471115 -1.1270294 -2.7806244 -0.079956055 -3.8718948l7.5833206 -7.903473l0 0c0.5028229 -0.52404785 1.193222 -0.8268814 1.9193115 -0.8418808c0.7260895 -0.01499176 1.4284058 0.25907898 1.9524307 0.76192474l160.17484 153.69937c1.091217 1.0471191 1.1270447 2.7806244 0.079956055 3.8719025l-7.5833282 7.903473c-1.0470734 1.0912781 -2.7805023 1.1270752 -3.8717346 0.079956055z" fill-rule="evenodd"/><path fill="#d5a888" d="m214.45845 284.09573l0 0c-3.277771 -3.1463623 -3.3845978 -8.354431 -0.23860168 -11.632538l74.377625 -77.501144c1.5107727 -1.5742035 3.5849304 -2.4837189 5.766205 -2.5284576c2.181305 -0.04473877 4.2910156 0.7789612 5.8650513 2.2898865l23.739014 22.787231c3.277771 3.1463623 3.384613 8.354416 0.23858643 11.632538l-74.37761 77.50113l0 0c-3.145996 3.2781372 -8.353485 3.3849487 -11.631256 0.23858643z" fill-rule="evenodd"/><path stroke="#000000" stroke-width="1.0" stroke-linejoin="round" stroke-linecap="butt" d="m214.45845 284.09573l0 0c-3.277771 -3.1463623 -3.3845978 -8.354431 -0.23860168 -11.632538l74.377625 -77.501144c1.5107727 -1.5742035 3.5849304 -2.4837189 5.766205 -2.5284576c2.181305 -0.04473877 4.2910156 0.7789612 5.8650513 2.2898865l23.739014 22.787231c3.277771 3.1463623 3.384613 8.354416 0.23858643 11.632538l-74.37761 77.50113l0 0c-3.145996 3.2781372 -8.353485 3.3849487 -11.631256 0.23858643z" fill-rule="evenodd"/><path fill="#cc0000" d="m217.5741 268.96686l5.3672485 -5.593048l35.608887 34.181183l-5.367264 5.593048z" fill-rule="evenodd"/><path stroke="#cc0000" stroke-width="1.0" stroke-linejoin="round" stroke-linecap="butt" d="m217.5741 268.96686l5.3672485 -5.593048l35.608887 34.181183l-5.367264 5.593048z" fill-rule="evenodd"/><path fill="#cc0000" d="m226.64285 259.51602l5.3672485 -5.593048l35.608856 34.181183l-5.3672485 5.5930786z" fill-rule="evenodd"/><path stroke="#cc0000" stroke-width="1.0" stroke-linejoin="round" stroke-linecap="butt" d="m226.64285 259.51602l5.3672485 -5.593048l35.608856 34.181183l-5.3672485 5.5930786z" fill-rule="evenodd"/><path fill="#cc0000" d="m270.8126 213.4854l5.3672485 -5.5930634l35.608856 34.1812l-5.3672485 5.5930634z" fill-rule="evenodd"/><path stroke="#cc0000" stroke-width="1.0" stroke-linejoin="round" stroke-linecap="butt" d="m270.8126 213.4854l5.3672485 -5.5930634l35.608856 34.1812l-5.3672485 5.5930634z" fill-rule="evenodd"/><path fill="#cc0000" d="m279.88132 204.03458l5.367279 -5.5930634l35.608856 34.1812l-5.3672485 5.593048z" fill-rule="evenodd"/><path stroke="#cc0000" stroke-width="1.0" stroke-linejoin="round" stroke-linecap="butt" d="m279.88132 204.03458l5.367279 -5.5930634l35.608856 34.1812l-5.3672485 5.593048z" fill-rule="evenodd"/><path fill="#cc0000" d="m107.52159 84.23994l5.5930557 5.367256l-11.375099 11.855324l-5.5930634 -5.3672485z" fill-rule="evenodd"/><path stroke="#cc0000" stroke-width="1.0" stroke-linejoin="round" stroke-linecap="butt" d="m107.52159 84.23994l5.5930557 5.367256l-11.375099 11.855324l-5.5930634 -5.3672485z" fill-rule="evenodd"/><path fill="#cc0000" d="m116.97242 93.30869l5.5930557 5.3672485l-11.375107 11.855331l-5.5930557 -5.367256z" fill-rule="evenodd"/><path stroke="#cc0000" stroke-width="1.0" stroke-linejoin="round" stroke-linecap="butt" d="m116.97242 93.30869l5.5930557 5.3672485l-11.375107 11.855331l-5.5930557 -5.367256z" fill-rule="evenodd"/></g></svg>